<svg xmlns="http://www.w3.org/2000/svg" viewBox="0 0 1000 1000" role="img" aria-labelledby="title desc">
  <title id="title">Shelton social profile mark</title>
  <desc id="desc">Square social avatar featuring the official Shelton circular S mark.</desc>
  <rect width="1000" height="1000" fill="#081321"/>
  <g transform="translate(145 145) scale(.87117)">
    <path d="M 407.5 0 A 407.5 407.5 0 1 1 407.5 815 A 407.5 407.5 0 1 1 407.5 0 Z M 407.5 93 A 314.5 314.5 0 1 0 407.5 722 A 314.5 314.5 0 1 0 407.5 93 Z M 190 463 L 290 463 C 290.19 463.97 291.13 470.58 292 473 C 292.87 475.42 296.49 484.52 299 488 C 301.51 491.48 313.26 505.62 318 509 C 322.74 512.38 341.81 520.97 348 523 C 354.19 525.03 371.66 529.13 382 530 C 392.34 530.87 445.33 532.10 455 532 C 464.67 531.90 477.75 529.68 482 529 C 486.25 528.32 495.81 526.06 499 525 C 502.19 523.94 512.10 520.13 515 518 C 517.90 515.87 527.36 505.51 529 503 C 530.64 500.49 531.90 494.90 532 492 C 532.10 489.10 531.16 476.09 530 473 C 528.84 469.91 521.93 461.74 520 460 C 518.07 458.26 513.48 456.06 510 455 C 506.52 453.94 498.21 450.35 484 449 C 469.79 447.65 380.50 442.64 363 441 C 345.50 439.36 311.22 433.55 303 432 C 294.78 430.45 282.45 426.55 278 425 C 273.55 423.45 261.64 418.90 257 416 C 252.36 413.10 233.96 399.25 230 395 C 226.04 390.75 217.93 376.35 216 372 C 214.07 367.65 210.68 355.90 210 350 C 209.32 344.10 208.61 316.90 209 311 C 209.39 305.10 212.65 292.96 214 289 C 215.35 285.04 220.29 274.06 223 270 C 225.71 265.94 238.42 250.58 242 247 C 245.58 243.42 255.55 235.71 260 233 C 264.45 230.29 281.43 221.42 288 219 C 294.57 216.58 320.17 209.55 328 208 C 335.83 206.45 357.50 203.39 369 203 C 380.50 202.61 433.37 202.84 447 204 C 460.63 205.16 499.56 212.20 510 215 C 520.44 217.80 548.23 229.52 555 233 C 561.77 236.48 575.36 246.55 580 251 C 584.64 255.45 599.52 273.68 603 279 C 606.48 284.32 613.97 300.20 616 306 C 618.03 311.80 623.23 335.81 624 339 L 527 339 C 526.13 336.68 520.71 319.16 518 315 C 515.29 310.84 503.83 298.90 499 296 C 494.17 293.10 474.38 286.55 468 285 C 461.62 283.45 441.41 280.58 433 280 C 424.59 279.42 390.09 278.61 381 279 C 371.91 279.39 345.38 282.45 339 284 C 332.62 285.55 318.48 292.39 315 295 C 311.52 297.61 304.16 307.04 303 311 C 301.84 314.96 302.23 332.52 303 336 C 303.77 339.48 309.07 345.36 311 347 C 312.93 348.64 317.39 351.55 323 353 C 328.61 354.45 355.76 360.65 369 362 C 382.24 363.35 445.11 365.65 460 367 C 474.89 368.35 512.37 373.68 523 376 C 533.63 378.32 563.91 388.68 570 391 C 576.09 393.32 582.62 397.49 586 400 C 589.38 402.51 602.00 413.42 605 417 C 608.00 420.58 615.16 432.26 617 437 C 618.84 441.74 623.32 460.39 624 466 C 624.68 471.61 624.68 489.20 624 495 C 623.32 500.80 619.03 520.49 617 526 C 614.97 531.51 606.19 547.55 603 552 C 599.81 556.45 587.96 568.62 584 572 C 580.04 575.38 566.35 584.58 562 587 C 557.65 589.42 543.54 595.36 539 597 C 534.46 598.64 520.80 602.74 515 604 C 509.20 605.26 490.60 609.23 479 610 C 467.40 610.77 408.63 612.39 395 612 C 381.37 611.61 348.15 607.84 338 606 C 327.85 604.16 298.12 596.09 290 593 C 281.88 589.91 260.09 578.25 254 574 C 247.91 569.75 231.64 554.70 227 549 C 222.36 543.30 209.09 521.19 206 515 C 202.91 508.81 196.55 490.03 195 485 C 193.45 479.97 190.48 465.13 190 463 Z" fill="#FAF6EE" fill-rule="evenodd"/>
  </g>
</svg>
